<svg width="93" height="14" viewBox="0 0 93 14" fill="none" xmlns="http://www.w3.org/2000/svg">
<path d="M3.11364 1.36364L5.92614 10.2045H6.03409L8.85227 1.36364H11.5795L7.56818 13H4.39773L0.380682 1.36364H3.11364ZM12.9347 13V4.27273H15.3551V13H12.9347ZM14.1506 3.14773C13.7907 3.14773 13.482 3.02841 13.2244 2.78977C12.9706 2.54735 12.8438 2.25758 12.8438 1.92045C12.8438 1.58712 12.9706 1.30114 13.2244 1.0625C13.482 0.820075 13.7907 0.698863 14.1506 0.698863C14.5104 0.698863 14.8172 0.820075 15.071 1.0625C15.3286 1.30114 15.4574 1.58712 15.4574 1.92045C15.4574 2.25758 15.3286 2.54735 15.071 2.78977C14.8172 3.02841 14.5104 3.14773 14.1506 3.14773ZM24.5554 6.76136L22.3395 6.89773C22.3016 6.70833 22.2202 6.53788 22.0952 6.38636C21.9702 6.23106 21.8054 6.10795 21.6009 6.01705C21.4001 5.92235 21.1596 5.875 20.8793 5.875C20.5043 5.875 20.188 5.95455 19.9304 6.11364C19.6728 6.26894 19.544 6.47727 19.544 6.73864C19.544 6.94697 19.6274 7.12311 19.794 7.26705C19.9607 7.41098 20.2467 7.52652 20.652 7.61364L22.2315 7.93182C23.08 8.10606 23.7126 8.38636 24.1293 8.77273C24.5459 9.15909 24.7543 9.66667 24.7543 10.2955C24.7543 10.8674 24.5857 11.3693 24.2486 11.8011C23.9152 12.233 23.4569 12.5701 22.8736 12.8125C22.294 13.0511 21.6255 13.1705 20.8679 13.1705C19.7126 13.1705 18.7921 12.9299 18.1065 12.4489C17.4247 11.964 17.0251 11.3049 16.9077 10.4716L19.2884 10.3466C19.3603 10.6989 19.5346 10.9678 19.8111 11.1534C20.0876 11.3352 20.4418 11.4261 20.8736 11.4261C21.2978 11.4261 21.6387 11.3447 21.8963 11.1818C22.1577 11.0152 22.2902 10.8011 22.294 10.5398C22.2902 10.3201 22.1974 10.1402 22.0156 10C21.8338 9.85606 21.5535 9.74621 21.1747 9.67045L19.6634 9.36932C18.8111 9.19886 18.1766 8.90341 17.7599 8.48295C17.3471 8.0625 17.1406 7.52652 17.1406 6.875C17.1406 6.31439 17.2921 5.83144 17.5952 5.42614C17.902 5.02083 18.3319 4.70833 18.8849 4.48864C19.4418 4.26894 20.0933 4.15909 20.8395 4.15909C21.9418 4.15909 22.8092 4.39205 23.4418 4.85795C24.0781 5.32386 24.4493 5.95833 24.5554 6.76136ZM30.9205 4.27273V6.09091H25.6648V4.27273H30.9205ZM26.858 2.18182H29.2784V10.3182C29.2784 10.5417 29.3125 10.7159 29.3807 10.8409C29.4489 10.9621 29.5436 11.0473 29.6648 11.0966C29.7898 11.1458 29.9337 11.1705 30.0966 11.1705C30.2102 11.1705 30.3239 11.161 30.4375 11.142C30.5511 11.1193 30.6383 11.1023 30.6989 11.0909L31.0795 12.892C30.9583 12.9299 30.7879 12.9735 30.5682 13.0227C30.3485 13.0758 30.0814 13.108 29.767 13.1193C29.1837 13.142 28.6723 13.0644 28.233 12.8864C27.7973 12.7083 27.4583 12.4318 27.2159 12.0568C26.9735 11.6818 26.8542 11.2083 26.858 10.6364V2.18182ZM34.9858 13.1648C34.429 13.1648 33.9328 13.0682 33.4972 12.875C33.0616 12.678 32.7169 12.3883 32.4631 12.0057C32.2131 11.6193 32.0881 11.1383 32.0881 10.5625C32.0881 10.0777 32.1771 9.67045 32.3551 9.34091C32.5331 9.01136 32.7756 8.74621 33.0824 8.54545C33.3892 8.3447 33.7377 8.19318 34.1278 8.09091C34.5218 7.98864 34.9347 7.91667 35.3665 7.875C35.8741 7.82197 36.2831 7.77273 36.5938 7.72727C36.9044 7.67803 37.1297 7.60606 37.2699 7.51136C37.41 7.41667 37.4801 7.27652 37.4801 7.09091V7.05682C37.4801 6.69697 37.3665 6.41856 37.1392 6.22159C36.9157 6.02462 36.5975 5.92614 36.1847 5.92614C35.7491 5.92614 35.4025 6.02273 35.1449 6.21591C34.8873 6.4053 34.7169 6.64394 34.6335 6.93182L32.3949 6.75C32.5085 6.2197 32.732 5.76136 33.0653 5.375C33.3987 4.98485 33.8286 4.68561 34.3551 4.47727C34.8854 4.26515 35.4991 4.15909 36.196 4.15909C36.6809 4.15909 37.1449 4.21591 37.5881 4.32955C38.035 4.44318 38.4309 4.61932 38.7756 4.85795C39.1241 5.09659 39.3987 5.40341 39.5994 5.77841C39.8002 6.14962 39.9006 6.5947 39.9006 7.11364V13H37.6051V11.7898H37.5369C37.3968 12.0625 37.2093 12.303 36.9744 12.5114C36.7396 12.7159 36.4574 12.8769 36.1278 12.9943C35.7983 13.108 35.4176 13.1648 34.9858 13.1648ZM35.679 11.4943C36.035 11.4943 36.3494 11.4242 36.6222 11.2841C36.8949 11.1402 37.1089 10.947 37.2642 10.7045C37.4195 10.4621 37.4972 10.1875 37.4972 9.88068V8.95455C37.4214 9.00379 37.3172 9.04924 37.1847 9.09091C37.0559 9.12879 36.91 9.16477 36.7472 9.19886C36.5843 9.22917 36.4214 9.25758 36.2585 9.28409C36.0956 9.30682 35.9479 9.32765 35.8153 9.34659C35.5313 9.38826 35.2831 9.45455 35.071 9.54545C34.8589 9.63636 34.6941 9.75947 34.5767 9.91477C34.4593 10.0663 34.4006 10.2557 34.4006 10.483C34.4006 10.8125 34.5199 11.0644 34.7585 11.2386C35.0009 11.4091 35.3078 11.4943 35.679 11.4943ZM45.527 13V1.36364H50.1179C51.0005 1.36364 51.7524 1.5322 52.3736 1.86932C52.9948 2.20265 53.4683 2.66667 53.794 3.26136C54.1236 3.85227 54.2884 4.53409 54.2884 5.30682C54.2884 6.07955 54.1217 6.76136 53.7884 7.35227C53.455 7.94318 52.9721 8.40341 52.3395 8.73295C51.7107 9.0625 50.9493 9.22727 50.0554 9.22727H47.1293V7.25568H49.6577C50.1312 7.25568 50.5213 7.17424 50.8281 7.01136C51.1387 6.8447 51.3698 6.61553 51.5213 6.32386C51.6766 6.02841 51.7543 5.68939 51.7543 5.30682C51.7543 4.92045 51.6766 4.58333 51.5213 4.29545C51.3698 4.00379 51.1387 3.77841 50.8281 3.61932C50.5175 3.45644 50.1236 3.375 49.6463 3.375H47.9872V13H45.527ZM55.8409 13V4.27273H58.1875V5.79545H58.2784C58.4375 5.25379 58.7045 4.8447 59.0795 4.56818C59.4545 4.28788 59.8864 4.14773 60.375 4.14773C60.4962 4.14773 60.6269 4.1553 60.767 4.17045C60.9072 4.18561 61.0303 4.20644 61.1364 4.23295V6.38068C61.0227 6.34659 60.8655 6.31629 60.6648 6.28977C60.464 6.26326 60.2803 6.25 60.1136 6.25C59.7576 6.25 59.4394 6.32765 59.1591 6.48295C58.8826 6.63447 58.6629 6.84659 58.5 7.11932C58.3409 7.39205 58.2614 7.70644 58.2614 8.0625V13H55.8409ZM65.9588 13.1705C65.0611 13.1705 64.2884 12.9886 63.6406 12.625C62.9967 12.2576 62.5005 11.7386 62.152 11.0682C61.8035 10.3939 61.6293 9.59659 61.6293 8.67614C61.6293 7.77841 61.8035 6.99053 62.152 6.3125C62.5005 5.63447 62.991 5.10606 63.6236 4.72727C64.2599 4.34848 65.0062 4.15909 65.8622 4.15909C66.438 4.15909 66.974 4.25189 67.4702 4.4375C67.9702 4.61932 68.4058 4.89394 68.777 5.26136C69.152 5.62879 69.4437 6.09091 69.652 6.64773C69.8603 7.20076 69.9645 7.84848 69.9645 8.59091V9.25568H62.5952V7.75568H67.6861C67.6861 7.4072 67.6103 7.09848 67.4588 6.82955C67.3073 6.56061 67.0971 6.35038 66.8281 6.19886C66.563 6.04356 66.2543 5.96591 65.902 5.96591C65.5346 5.96591 65.2088 6.05114 64.9247 6.22159C64.6444 6.38826 64.4247 6.61364 64.2656 6.89773C64.1065 7.17803 64.0251 7.49053 64.0213 7.83523V9.26136C64.0213 9.69318 64.1009 10.0663 64.2599 10.3807C64.4228 10.6951 64.652 10.9375 64.9474 11.108C65.2429 11.2784 65.5933 11.3636 65.9986 11.3636C66.2675 11.3636 66.5137 11.3258 66.7372 11.25C66.9607 11.1742 67.152 11.0606 67.3111 10.9091C67.4702 10.7576 67.5914 10.572 67.6747 10.3523L69.9134 10.5C69.7997 11.0379 69.5668 11.5076 69.2145 11.9091C68.866 12.3068 68.4152 12.6174 67.8622 12.8409C67.313 13.0606 66.6785 13.1705 65.9588 13.1705ZM79.446 4.27273L76.3949 13H73.6676L70.6165 4.27273H73.1733L74.9858 10.517H75.0767L76.8835 4.27273H79.446ZM80.6847 13V4.27273H83.1051V13H80.6847ZM81.9006 3.14773C81.5407 3.14773 81.232 3.02841 80.9744 2.78977C80.7206 2.54735 80.5938 2.25758 80.5938 1.92045C80.5938 1.58712 80.7206 1.30114 80.9744 1.0625C81.232 0.820075 81.5407 0.698863 81.9006 0.698863C82.2604 0.698863 82.5672 0.820075 82.821 1.0625C83.0786 1.30114 83.2074 1.58712 83.2074 1.92045C83.2074 2.25758 83.0786 2.54735 82.821 2.78977C82.5672 3.02841 82.2604 3.14773 81.9006 3.14773ZM87.5327 13.1648C86.9759 13.1648 86.4796 13.0682 86.044 12.875C85.6084 12.678 85.2637 12.3883 85.0099 12.0057C84.7599 11.6193 84.6349 11.1383 84.6349 10.5625C84.6349 10.0777 84.724 9.67045 84.902 9.34091C85.08 9.01136 85.3224 8.74621 85.6293 8.54545C85.9361 8.3447 86.2846 8.19318 86.6747 8.09091C87.0687 7.98864 87.4815 7.91667 87.9134 7.875C88.4209 7.82197 88.83 7.77273 89.1406 7.72727C89.4512 7.67803 89.6766 7.60606 89.8168 7.51136C89.9569 7.41667 90.027 7.27652 90.027 7.09091V7.05682C90.027 6.69697 89.9134 6.41856 89.6861 6.22159C89.4626 6.02462 89.1444 5.92614 88.7315 5.92614C88.2959 5.92614 87.9493 6.02273 87.6918 6.21591C87.4342 6.4053 87.2637 6.64394 87.1804 6.93182L84.9418 6.75C85.0554 6.2197 85.2789 5.76136 85.6122 5.375C85.9455 4.98485 86.3755 4.68561 86.902 4.47727C87.4323 4.26515 88.0459 4.15909 88.7429 4.15909C89.2277 4.15909 89.6918 4.21591 90.1349 4.32955C90.5819 4.44318 90.9777 4.61932 91.3224 4.85795C91.6709 5.09659 91.9455 5.40341 92.1463 5.77841C92.3471 6.14962 92.4474 6.5947 92.4474 7.11364V13H90.152V11.7898H90.0838C89.9437 12.0625 89.7562 12.303 89.5213 12.5114C89.2865 12.7159 89.0043 12.8769 88.6747 12.9943C88.3452 13.108 87.9645 13.1648 87.5327 13.1648ZM88.2259 11.4943C88.5819 11.4943 88.8963 11.4242 89.169 11.2841C89.4418 11.1402 89.6558 10.947 89.8111 10.7045C89.9664 10.4621 90.044 10.1875 90.044 9.88068V8.95455C89.9683 9.00379 89.8641 9.04924 89.7315 9.09091C89.6027 9.12879 89.4569 9.16477 89.294 9.19886C89.1312 9.22917 88.9683 9.25758 88.8054 9.28409C88.6425 9.30682 88.4948 9.32765 88.3622 9.34659C88.0781 9.38826 87.83 9.45455 87.6179 9.54545C87.4058 9.63636 87.241 9.75947 87.1236 9.91477C87.0062 10.0663 86.9474 10.2557 86.9474 10.483C86.9474 10.8125 87.0668 11.0644 87.3054 11.2386C87.5478 11.4091 87.8546 11.4943 88.2259 11.4943Z" fill="#39C364" fill-opacity="0.16"/>
</svg>
