<svg width="87" height="116" viewBox="0 0 87 116" fill="none" xmlns="http://www.w3.org/2000/svg">
<path d="M87 27.6273V29H58V0H59.3727C60.8148 7.53991e-06 62.1978 0.572846 63.2175 1.59251L85.4073 23.7823C86.427 24.802 86.9999 26.1851 87 27.6273ZM56.1875 36.25C53.1969 36.25 50.75 33.8031 50.75 30.8125V0H5.4375C2.43441 0 0 2.43441 0 5.4375V110.562C0 113.566 2.43441 116 5.4375 116H81.5625C84.5656 116 87 113.566 87 110.562V36.25H56.1875ZM25.4985 39.875C31.5046 39.875 36.3735 44.7438 36.3735 50.75C36.3735 56.7562 31.5046 61.625 25.4985 61.625C19.4923 61.625 14.6235 56.7562 14.6235 50.75C14.6235 44.7438 19.4925 39.875 25.4985 39.875ZM72.6235 94.25H14.6235L14.7334 83.2651L23.686 74.3125C24.7476 73.2508 26.3592 73.3607 27.4209 74.4224L36.3735 83.375L59.8261 59.9224C60.8878 58.8607 62.6092 58.8607 63.6711 59.9224L72.6235 68.875V94.25Z" fill="#39C364" fill-opacity="0.16"/>
</svg>
